<svg width="18" height="18" viewBox="0 0 18 18" fill="none" xmlns="http://www.w3.org/2000/svg">
<g id="whatsapp 1" clip-path="url(#clip0_105_2615)">
<path id="Vector" d="M8.70203 0.788208H8.69769C3.90673 0.788208 0.0107422 4.5461 0.0107422 9.167C0.0107422 10.9999 0.623325 12.6987 1.66493 14.078L0.582052 17.1907L3.92193 16.1612C5.2959 17.0389 6.93488 17.5458 8.70203 17.5458C13.493 17.5458 17.389 13.7869 17.389 9.167C17.389 4.54714 13.493 0.788208 8.70203 0.788208Z" fill="white"/>
<path id="Vector_2" d="M13.7579 12.6203C13.5483 13.1911 12.7163 13.6645 12.0527 13.8027C11.5986 13.8959 11.0056 13.9703 9.00929 13.1722C6.45578 12.1521 4.81136 9.64997 4.6832 9.48764C4.56047 9.3253 3.65137 8.16274 3.65137 6.96038C3.65137 5.75803 4.28459 5.17256 4.53983 4.92119C4.74945 4.71487 5.09593 4.62061 5.42829 4.62061C5.53582 4.62061 5.63249 4.62584 5.71938 4.63003C5.97462 4.64051 6.10278 4.65517 6.27114 5.04373C6.48076 5.53075 6.99125 6.73311 7.05207 6.8567C7.11398 6.98028 7.17589 7.14786 7.089 7.3102C7.00754 7.47777 6.93585 7.55213 6.80769 7.69457C6.67952 7.83701 6.55788 7.94594 6.42971 8.09885C6.31241 8.23186 6.1799 8.3743 6.32762 8.62043C6.47533 8.86132 6.98582 9.66464 7.73742 10.3098C8.70735 11.1424 9.49371 11.4085 9.77502 11.5216C9.98465 11.6054 10.2345 11.5855 10.3876 11.4284C10.582 11.2262 10.8221 10.8911 11.0664 10.5612C11.2402 10.3245 11.4596 10.2951 11.6899 10.3789C11.9245 10.4575 13.1659 11.0492 13.4212 11.1718C13.6764 11.2954 13.8448 11.354 13.9067 11.4577C13.9675 11.5614 13.9675 12.0484 13.7579 12.6203Z" fill="#3F3C3C"/>
</g>
<defs>
<clipPath id="clip0_105_2615">
<rect width="17.3782" height="16.7576" fill="white" transform="translate(0.0107422 0.788208)"/>
</clipPath>
</defs>
</svg>
